<?xml version="1.0" encoding="UTF-8"?> <!-- Creator: CorelDRAW --> <svg xmlns="http://www.w3.org/2000/svg" xmlns:xlink="http://www.w3.org/1999/xlink" xml:space="preserve" width="200mm" height="200mm" style="shape-rendering:geometricPrecision; text-rendering:geometricPrecision; image-rendering:optimizeQuality; fill-rule:evenodd; clip-rule:evenodd" viewBox="0 0 200 200"> <defs> <style type="text/css"> <![CDATA[ .fil0 {fill:#ffffff} .fil1 {fill:#ffffff;fill-rule:nonzero} ]]> </style> </defs> <g id="Vrstva_x0020_1"> <metadata id="CorelCorpID_0Corel-Layer"></metadata> <path class="fil0" d="M100 9.9999c49.6972,0 90,40.3026 90,89.9999 0,49.6976 -40.3028,90.0002 -90,90.0002 -49.6973,0 -90,-40.3026 -90,-90.0002 0,-49.6973 40.3027,-89.9999 90,-89.9999zm0 6.8362c45.9223,0 83.1636,37.2414 83.1636,83.1637 0,45.9227 -37.2413,83.1638 -83.1636,83.1638 -45.9223,0 -83.1636,-37.2411 -83.1636,-83.1638 0,-45.9223 37.2413,-83.1637 83.1636,-83.1637z"></path> <path class="fil1" d="M105.404 67.029l6.2746 0 9.5074 23.9583 9.6022 -23.9583 6.3699 0 -11.7891 28.8069 12.9298 30.5183 24.4336 -59.8006 7.2257 0 -28.6169 67.5015 -5.8946 0 -14.1655 -33.3706 -14.261 33.3706 -5.7994 0 -11.4928 -27.0297c-0.5964,4.0634 -1.7531,7.7496 -3.469,11.0575 -2.6306,5.0705 -6.37,9.0003 -11.2186,11.7891 -4.8489,2.7888 -10.569,4.1831 -17.1608,4.1831l-22.9123 0 0 -67.5015 22.9123 0c7.1623,0 13.1359,1.5053 17.9212,4.516 4.7855,3.0107 8.3823,7.067 10.7908,12.1692 0.4581,0.9704 0.873,1.9608 1.2439,2.9713l16.5227 40.1441 12.8347 -30.5183 -11.7888 -28.8069zm-21.8548 33.1801c0,-5.3874 -0.9983,-10.1727 -2.9947,-14.3557 -1.9967,-4.1834 -4.8963,-7.4633 -8.6993,-9.8401 -3.8028,-2.3768 -8.4615,-3.5651 -13.9757,-3.5651l-16.2574 0 0 55.7123 16.2574 0c5.5776,0 10.268,-1.2358 14.0708,-3.7076 3.803,-2.4722 6.6868,-5.8155 8.6516,-10.0302 1.9648,-4.2151 2.9473,-8.9526 2.9473,-14.2136z"></path> </g> </svg> 